<svg width="792" height="792" viewBox="0 0 792 792" fill="none" xmlns="http://www.w3.org/2000/svg">
<path d="M205.448 420L226.184 375.2H228.296L249.032 420H246.664L226.76 376.672H227.72L207.816 420H205.448ZM212.616 406.88L213.448 405.024H240.84L241.672 406.88H212.616ZM256.667 420V386.784H258.715V395.936L258.523 395.36C259.419 392.587 260.976 390.432 263.195 388.896C265.456 387.317 268.272 386.528 271.643 386.528V388.64C271.557 388.64 271.451 388.64 271.323 388.64C271.237 388.64 271.152 388.64 271.067 388.64C267.227 388.64 264.219 389.856 262.043 392.288C259.867 394.72 258.779 398.069 258.779 402.336V420H256.667ZM294.172 432.608C291.185 432.608 288.348 432.117 285.66 431.136C283.015 430.197 280.881 428.896 279.26 427.232L280.476 425.632C282.183 427.253 284.209 428.491 286.556 429.344C288.903 430.24 291.42 430.688 294.108 430.688C298.759 430.688 302.193 429.579 304.412 427.36C306.631 425.184 307.74 421.749 307.74 417.056V407.008L308.38 402.656L307.804 398.304V386.784H309.852V416.8C309.852 422.219 308.551 426.208 305.948 428.768C303.345 431.328 299.42 432.608 294.172 432.608ZM293.276 418.848C290.161 418.848 287.367 418.165 284.892 416.8C282.417 415.392 280.455 413.472 279.004 411.04C277.553 408.608 276.828 405.813 276.828 402.656C276.828 399.499 277.553 396.704 279.004 394.272C280.455 391.84 282.417 389.941 284.892 388.576C287.367 387.211 290.161 386.528 293.276 386.528C296.348 386.528 299.079 387.211 301.468 388.576C303.857 389.899 305.756 391.776 307.164 394.208C308.572 396.597 309.276 399.413 309.276 402.656C309.276 405.899 308.572 408.736 307.164 411.168C305.756 413.6 303.857 415.499 301.468 416.864C299.079 418.187 296.348 418.848 293.276 418.848ZM293.34 416.928C296.156 416.928 298.631 416.331 300.764 415.136C302.94 413.941 304.647 412.256 305.884 410.08C307.121 407.904 307.74 405.429 307.74 402.656C307.74 399.84 307.121 397.387 305.884 395.296C304.647 393.163 302.94 391.499 300.764 390.304C298.631 389.109 296.156 388.512 293.34 388.512C290.609 388.512 288.156 389.109 285.98 390.304C283.804 391.499 282.076 393.163 280.796 395.296C279.559 397.387 278.94 399.84 278.94 402.656C278.94 405.429 279.559 407.904 280.796 410.08C282.076 412.256 283.804 413.941 285.98 415.136C288.156 416.331 290.609 416.928 293.34 416.928ZM337.098 420.192C333.812 420.192 330.911 419.488 328.394 418.08C325.876 416.629 323.892 414.624 322.442 412.064C320.991 409.504 320.266 406.603 320.266 403.36C320.266 400.075 320.927 397.173 322.25 394.656C323.615 392.139 325.471 390.155 327.818 388.704C330.207 387.253 332.895 386.528 335.882 386.528C338.826 386.528 341.471 387.232 343.818 388.64C346.207 390.048 348.063 392.011 349.386 394.528C350.751 397.003 351.434 399.861 351.434 403.104C351.434 403.189 351.434 403.296 351.434 403.424C351.434 403.509 351.434 403.595 351.434 403.68H321.674V401.952H350.282L349.45 402.976C349.45 400.203 348.852 397.728 347.658 395.552C346.506 393.333 344.906 391.605 342.858 390.368C340.81 389.088 338.484 388.448 335.882 388.448C333.279 388.448 330.954 389.088 328.906 390.368C326.858 391.605 325.236 393.333 324.042 395.552C322.89 397.728 322.314 400.224 322.314 403.04V403.424C322.314 406.325 322.954 408.907 324.234 411.168C325.514 413.387 327.263 415.136 329.482 416.416C331.7 417.653 334.239 418.272 337.098 418.272C339.274 418.272 341.322 417.867 343.242 417.056C345.204 416.245 346.826 415.008 348.106 413.344L349.45 414.752C347.956 416.544 346.122 417.909 343.946 418.848C341.812 419.744 339.53 420.192 337.098 420.192ZM377.534 386.528C380.265 386.528 382.611 387.061 384.574 388.128C386.579 389.195 388.137 390.773 389.246 392.864C390.355 394.912 390.91 397.451 390.91 400.48V420H388.798V400.608C388.798 396.64 387.795 393.632 385.79 391.584C383.785 389.536 380.969 388.512 377.342 388.512C374.569 388.512 372.179 389.067 370.174 390.176C368.169 391.285 366.633 392.864 365.566 394.912C364.499 396.96 363.966 399.349 363.966 402.08V420H361.854V386.784H363.902V396.128L363.646 395.552C364.67 392.779 366.355 390.581 368.702 388.96C371.091 387.339 374.035 386.528 377.534 386.528ZM413.753 420.192C411.022 420.192 408.932 419.424 407.481 417.888C406.03 416.352 405.305 414.283 405.305 411.68V379.488H407.417V411.36C407.417 413.621 407.972 415.349 409.081 416.544C410.19 417.739 411.812 418.336 413.945 418.336C416.121 418.336 417.913 417.675 419.321 416.352L420.409 417.888C419.598 418.656 418.596 419.232 417.401 419.616C416.206 420 414.99 420.192 413.753 420.192ZM399.033 388.64V386.784H418.361V388.64H399.033ZM449.44 420.256C446.154 420.256 443.104 419.701 440.288 418.592C437.472 417.44 435.018 415.84 432.928 413.792C430.837 411.744 429.216 409.355 428.064 406.624C426.912 403.851 426.336 400.843 426.336 397.6C426.336 394.357 426.912 391.371 428.064 388.64C429.216 385.867 430.837 383.456 432.928 381.408C435.018 379.36 437.472 377.781 440.288 376.672C443.104 375.52 446.154 374.944 449.44 374.944C452.469 374.944 455.328 375.435 458.016 376.416C460.704 377.397 463.029 378.891 464.992 380.896L463.648 382.304C461.642 380.384 459.445 379.019 457.056 378.208C454.709 377.355 452.192 376.928 449.504 376.928C446.517 376.928 443.744 377.461 441.184 378.528C438.624 379.552 436.384 381.003 434.464 382.88C432.586 384.757 431.114 386.955 430.048 389.472C429.024 391.947 428.512 394.656 428.512 397.6C428.512 400.544 429.024 403.275 430.048 405.792C431.114 408.267 432.586 410.443 434.464 412.32C436.384 414.197 438.624 415.669 441.184 416.736C443.744 417.76 446.517 418.272 449.504 418.272C452.192 418.272 454.709 417.867 457.056 417.056C459.445 416.203 461.642 414.795 463.648 412.832L464.992 414.24C463.029 416.245 460.704 417.76 458.016 418.784C455.328 419.765 452.469 420.256 449.44 420.256ZM486.398 420.192C483.283 420.192 480.489 419.488 478.014 418.08C475.582 416.629 473.641 414.624 472.19 412.064C470.782 409.504 470.078 406.603 470.078 403.36C470.078 400.075 470.782 397.173 472.19 394.656C473.641 392.139 475.582 390.155 478.014 388.704C480.489 387.253 483.283 386.528 486.398 386.528C489.513 386.528 492.307 387.253 494.782 388.704C497.257 390.155 499.198 392.139 500.606 394.656C502.014 397.173 502.718 400.075 502.718 403.36C502.718 406.603 502.014 409.504 500.606 412.064C499.198 414.624 497.257 416.629 494.782 418.08C492.307 419.488 489.513 420.192 486.398 420.192ZM486.398 418.272C489.129 418.272 491.561 417.653 493.694 416.416C495.87 415.136 497.555 413.365 498.75 411.104C499.987 408.843 500.606 406.261 500.606 403.36C500.606 400.416 499.987 397.835 498.75 395.616C497.555 393.355 495.87 391.605 493.694 390.368C491.561 389.131 489.129 388.512 486.398 388.512C483.71 388.512 481.299 389.131 479.166 390.368C477.033 391.605 475.326 393.355 474.046 395.616C472.809 397.835 472.19 400.416 472.19 403.36C472.19 406.261 472.809 408.843 474.046 411.104C475.326 413.365 477.033 415.136 479.166 416.416C481.299 417.653 483.71 418.272 486.398 418.272ZM525.647 420.192C522.575 420.192 519.801 419.488 517.327 418.08C514.895 416.629 512.953 414.645 511.503 412.128C510.095 409.568 509.391 406.645 509.391 403.36C509.391 400.032 510.095 397.131 511.503 394.656C512.953 392.139 514.895 390.155 517.327 388.704C519.801 387.253 522.575 386.528 525.647 386.528C528.633 386.528 531.321 387.232 533.711 388.64C536.1 390.048 537.977 392.011 539.343 394.528C540.751 397.045 541.455 399.989 541.455 403.36C541.455 406.688 540.751 409.632 539.343 412.192C537.977 414.752 536.1 416.736 533.711 418.144C531.321 419.509 528.633 420.192 525.647 420.192ZM525.711 418.272C528.441 418.272 530.873 417.653 533.007 416.416C535.14 415.136 536.825 413.365 538.062 411.104C539.3 408.843 539.919 406.261 539.919 403.36C539.919 400.416 539.3 397.835 538.062 395.616C536.825 393.355 535.14 391.605 533.007 390.368C530.873 389.131 528.441 388.512 525.711 388.512C523.023 388.512 520.612 389.131 518.479 390.368C516.345 391.605 514.639 393.355 513.359 395.616C512.121 397.835 511.503 400.416 511.503 403.36C511.503 406.261 512.121 408.843 513.359 411.104C514.639 413.365 516.345 415.136 518.479 416.416C520.612 417.653 523.023 418.272 525.711 418.272ZM539.983 420V408.352L540.559 403.296L539.919 398.24V372.512H542.031V420H539.983ZM569.285 420.192C566 420.192 563.098 419.488 560.581 418.08C558.064 416.629 556.08 414.624 554.629 412.064C553.178 409.504 552.453 406.603 552.453 403.36C552.453 400.075 553.114 397.173 554.437 394.656C555.802 392.139 557.658 390.155 560.005 388.704C562.394 387.253 565.082 386.528 568.069 386.528C571.013 386.528 573.658 387.232 576.005 388.64C578.394 390.048 580.25 392.011 581.573 394.528C582.938 397.003 583.621 399.861 583.621 403.104C583.621 403.189 583.621 403.296 583.621 403.424C583.621 403.509 583.621 403.595 583.621 403.68H553.861V401.952H582.469L581.637 402.976C581.637 400.203 581.04 397.728 579.845 395.552C578.693 393.333 577.093 391.605 575.045 390.368C572.997 389.088 570.672 388.448 568.069 388.448C565.466 388.448 563.141 389.088 561.093 390.368C559.045 391.605 557.424 393.333 556.229 395.552C555.077 397.728 554.501 400.224 554.501 403.04V403.424C554.501 406.325 555.141 408.907 556.421 411.168C557.701 413.387 559.45 415.136 561.669 416.416C563.888 417.653 566.426 418.272 569.285 418.272C571.461 418.272 573.509 417.867 575.429 417.056C577.392 416.245 579.013 415.008 580.293 413.344L581.637 414.752C580.144 416.544 578.309 417.909 576.133 418.848C574 419.744 571.717 420.192 569.285 420.192Z" fill="white"/>
    <circle cx="395.5" cy="396.5" r="267.5" stroke="#6b26d9" stroke-width="10" fill="none" />
    <circle cx="395.5" cy="396.5" r="307.5" stroke="#2f115f" stroke-width="10" stroke-dasharray="20 20" fill="none">
        <animateTransform 
            attributeName="transform" 
            type="rotate" 
            from="360 395.5 396.5" 
            to="0 395.5 396.5" 
            dur="30s" 
            repeatCount="indefinite" />
    </circle>
    <circle cx="396" cy="396" r="349" stroke="#1a0934" stroke-width="10" stroke-dasharray="20 20" fill="none">
        <animateTransform 
            attributeName="transform" 
            type="rotate" 
            from="0 396 396" 
            to="360 396 396" 
            dur="30s" 
            repeatCount="indefinite" />
    </circle>
</svg>
