<svg width="407" height="88" viewBox="0 0 407 88" fill="none" xmlns="http://www.w3.org/2000/svg">
<path d="M12.128 62L32.608 17.2H37.28L57.76 62H52.768L33.952 19.952H35.872L17.056 62H12.128ZM20.192 50.032L21.6 46.192H47.648L49.056 50.032H20.192ZM64.211 62V28.4H68.563V37.552L68.115 35.952C69.0537 33.392 70.6323 31.4507 72.851 30.128C75.0697 28.7627 77.8217 28.08 81.107 28.08V32.496C80.9363 32.496 80.7657 32.496 80.595 32.496C80.4243 32.4533 80.2537 32.432 80.083 32.432C76.5417 32.432 73.7683 33.52 71.763 35.696C69.7577 37.8293 68.755 40.88 68.755 44.848V62H64.211ZM103.422 74.736C100.35 74.736 97.406 74.288 94.59 73.392C91.774 72.496 89.4913 71.216 87.742 69.552L90.046 66.096C91.6247 67.504 93.566 68.6133 95.87 69.424C98.2167 70.2773 100.691 70.704 103.294 70.704C107.561 70.704 110.697 69.7013 112.702 67.696C114.707 65.7333 115.71 62.6613 115.71 58.48V50.096L116.35 44.336L115.902 38.576V28.4H120.254V57.904C120.254 63.7067 118.825 67.952 115.966 70.64C113.15 73.3707 108.969 74.736 103.422 74.736ZM102.59 60.72C99.39 60.72 96.51 60.0373 93.95 58.672C91.39 57.264 89.3633 55.3227 87.87 52.848C86.4193 50.3733 85.694 47.536 85.694 44.336C85.694 41.136 86.4193 38.32 87.87 35.888C89.3633 33.4133 91.39 31.4933 93.95 30.128C96.51 28.7627 99.39 28.08 102.59 28.08C105.577 28.08 108.265 28.6987 110.654 29.936C113.043 31.1733 114.942 33.008 116.35 35.44C117.758 37.872 118.462 40.8373 118.462 44.336C118.462 47.8347 117.758 50.8 116.35 53.232C114.942 55.664 113.043 57.52 110.654 58.8C108.265 60.08 105.577 60.72 102.59 60.72ZM103.038 56.688C105.513 56.688 107.71 56.176 109.63 55.152C111.55 54.0853 113.065 52.6347 114.174 50.8C115.283 48.9227 115.838 46.768 115.838 44.336C115.838 41.904 115.283 39.7707 114.174 37.936C113.065 36.1013 111.55 34.672 109.63 33.648C107.71 32.5813 105.513 32.048 103.038 32.048C100.606 32.048 98.4087 32.5813 96.446 33.648C94.526 34.672 93.0113 36.1013 91.902 37.936C90.8353 39.7707 90.302 41.904 90.302 44.336C90.302 46.768 90.8353 48.9227 91.902 50.8C93.0113 52.6347 94.526 54.0853 96.446 55.152C98.4087 56.176 100.606 56.688 103.038 56.688ZM147.171 62.32C143.672 62.32 140.6 61.5947 137.955 60.144C135.309 58.6507 133.24 56.624 131.747 54.064C130.253 51.4613 129.507 48.496 129.507 45.168C129.507 41.84 130.211 38.896 131.619 36.336C133.069 33.776 135.032 31.7707 137.507 30.32C140.024 28.8267 142.84 28.08 145.955 28.08C149.112 28.08 151.907 28.8053 154.339 30.256C156.813 31.664 158.755 33.6693 160.163 36.272C161.571 38.832 162.275 41.7973 162.275 45.168C162.275 45.3813 162.253 45.616 162.211 45.872C162.211 46.0853 162.211 46.32 162.211 46.576H132.963V43.184H159.779L157.987 44.528C157.987 42.096 157.453 39.9413 156.387 38.064C155.363 36.144 153.955 34.6507 152.163 33.584C150.371 32.5173 148.301 31.984 145.955 31.984C143.651 31.984 141.581 32.5173 139.747 33.584C137.912 34.6507 136.483 36.144 135.459 38.064C134.435 39.984 133.923 42.1813 133.923 44.656V45.36C133.923 47.92 134.477 50.1813 135.587 52.144C136.739 54.064 138.317 55.5787 140.323 56.688C142.371 57.7547 144.696 58.288 147.299 58.288C149.347 58.288 151.245 57.9253 152.995 57.2C154.787 56.4747 156.323 55.3653 157.603 53.872L160.163 56.816C158.669 58.608 156.792 59.9733 154.531 60.912C152.312 61.8507 149.859 62.32 147.171 62.32ZM188.676 28.08C191.406 28.08 193.796 28.6133 195.844 29.68C197.934 30.704 199.556 32.2827 200.708 34.416C201.902 36.5493 202.5 39.2373 202.5 42.48V62H197.956V42.928C197.956 39.3867 197.06 36.72 195.268 34.928C193.518 33.0933 191.044 32.176 187.844 32.176C185.454 32.176 183.364 32.6667 181.572 33.648C179.822 34.5867 178.457 35.9733 177.476 37.808C176.537 39.6 176.068 41.776 176.068 44.336V62H171.524V28.4H175.876V37.616L175.172 35.888C176.238 33.456 177.945 31.5573 180.292 30.192C182.638 28.784 185.433 28.08 188.676 28.08ZM225.398 62.32C222.24 62.32 219.808 61.4667 218.102 59.76C216.395 58.0533 215.542 55.6427 215.542 52.528V20.976H220.086V52.272C220.086 54.2347 220.576 55.7493 221.558 56.816C222.582 57.8827 224.032 58.416 225.91 58.416C227.915 58.416 229.579 57.84 230.902 56.688L232.502 59.952C231.606 60.7627 230.518 61.36 229.238 61.744C228 62.128 226.72 62.32 225.398 62.32ZM209.526 32.176V28.4H230.326V32.176H209.526ZM261.19 62.384C257.819 62.384 254.704 61.8293 251.846 60.72C248.987 59.568 246.512 57.968 244.422 55.92C242.331 53.872 240.688 51.4613 239.494 48.688C238.342 45.9147 237.766 42.8853 237.766 39.6C237.766 36.3147 238.342 33.2853 239.494 30.512C240.688 27.7387 242.331 25.328 244.422 23.28C246.555 21.232 249.051 19.6533 251.91 18.544C254.768 17.392 257.883 16.816 261.254 16.816C264.496 16.816 267.547 17.3707 270.406 18.48C273.264 19.5467 275.675 21.168 277.638 23.344L274.63 26.352C272.795 24.4747 270.768 23.1307 268.55 22.32C266.331 21.4667 263.942 21.04 261.382 21.04C258.694 21.04 256.198 21.5093 253.894 22.448C251.59 23.344 249.584 24.6453 247.878 26.352C246.171 28.016 244.827 29.9787 243.845 32.24C242.907 34.4587 242.438 36.912 242.438 39.6C242.438 42.288 242.907 44.7627 243.845 47.024C244.827 49.2427 246.171 51.2053 247.878 52.912C249.584 54.576 251.59 55.8773 253.894 56.816C256.198 57.712 258.694 58.16 261.382 58.16C263.942 58.16 266.331 57.7333 268.55 56.88C270.768 56.0267 272.795 54.6613 274.63 52.784L277.638 55.792C275.675 57.968 273.264 59.6107 270.406 60.72C267.547 61.8293 264.475 62.384 261.19 62.384ZM298.97 62.32C295.727 62.32 292.804 61.5947 290.202 60.144C287.642 58.6507 285.615 56.624 284.122 54.064C282.628 51.4613 281.882 48.496 281.882 45.168C281.882 41.7973 282.628 38.832 284.122 36.272C285.615 33.712 287.642 31.7067 290.202 30.256C292.762 28.8053 295.684 28.08 298.97 28.08C302.298 28.08 305.242 28.8053 307.802 30.256C310.404 31.7067 312.431 33.712 313.882 36.272C315.375 38.832 316.122 41.7973 316.122 45.168C316.122 48.496 315.375 51.4613 313.882 54.064C312.431 56.624 310.404 58.6507 307.802 60.144C305.199 61.5947 302.255 62.32 298.97 62.32ZM298.97 58.288C301.402 58.288 303.556 57.7547 305.434 56.688C307.311 55.5787 308.783 54.0427 309.85 52.08C310.959 50.0747 311.514 47.7707 311.514 45.168C311.514 42.5227 310.959 40.2187 309.85 38.256C308.783 36.2933 307.311 34.7787 305.434 33.712C303.556 32.6027 301.423 32.048 299.034 32.048C296.644 32.048 294.511 32.6027 292.634 33.712C290.756 34.7787 289.263 36.2933 288.154 38.256C287.044 40.2187 286.49 42.5227 286.49 45.168C286.49 47.7707 287.044 50.0747 288.154 52.08C289.263 54.0427 290.756 55.5787 292.634 56.688C294.511 57.7547 296.623 58.288 298.97 58.288ZM338.775 62.32C335.575 62.32 332.695 61.5947 330.135 60.144C327.617 58.6933 325.633 56.688 324.183 54.128C322.732 51.5253 322.007 48.5387 322.007 45.168C322.007 41.7547 322.732 38.768 324.183 36.208C325.633 33.648 327.617 31.664 330.135 30.256C332.695 28.8053 335.575 28.08 338.775 28.08C341.719 28.08 344.343 28.7413 346.647 30.064C348.993 31.3867 350.849 33.328 352.215 35.888C353.623 38.4053 354.326 41.4987 354.326 45.168C354.326 48.7947 353.644 51.888 352.279 54.448C350.913 57.008 349.057 58.9707 346.711 60.336C344.407 61.6587 341.761 62.32 338.775 62.32ZM339.095 58.288C341.484 58.288 343.617 57.7547 345.495 56.688C347.415 55.5787 348.908 54.0427 349.975 52.08C351.084 50.0747 351.639 47.7707 351.639 45.168C351.639 42.5227 351.084 40.2187 349.975 38.256C348.908 36.2933 347.415 34.7787 345.495 33.712C343.617 32.6027 341.484 32.048 339.095 32.048C336.748 32.048 334.636 32.6027 332.759 33.712C330.881 34.7787 329.388 36.2933 328.279 38.256C327.169 40.2187 326.615 42.5227 326.615 45.168C326.615 47.7707 327.169 50.0747 328.279 52.08C329.388 54.0427 330.881 55.5787 332.759 56.688C334.636 57.7547 336.748 58.288 339.095 58.288ZM351.767 62V51.888L352.215 45.104L351.575 38.32V14.512H356.119V62H351.767ZM383.046 62.32C379.547 62.32 376.475 61.5947 373.83 60.144C371.184 58.6507 369.115 56.624 367.622 54.064C366.128 51.4613 365.382 48.496 365.382 45.168C365.382 41.84 366.086 38.896 367.494 36.336C368.944 33.776 370.907 31.7707 373.382 30.32C375.899 28.8267 378.715 28.08 381.83 28.08C384.987 28.08 387.782 28.8053 390.214 30.256C392.688 31.664 394.63 33.6693 396.038 36.272C397.446 38.832 398.15 41.7973 398.15 45.168C398.15 45.3813 398.128 45.616 398.086 45.872C398.086 46.0853 398.086 46.32 398.086 46.576H368.838V43.184H395.654L393.862 44.528C393.862 42.096 393.328 39.9413 392.262 38.064C391.238 36.144 389.83 34.6507 388.038 33.584C386.246 32.5173 384.176 31.984 381.83 31.984C379.526 31.984 377.456 32.5173 375.622 33.584C373.787 34.6507 372.358 36.144 371.334 38.064C370.31 39.984 369.798 42.1813 369.798 44.656V45.36C369.798 47.92 370.352 50.1813 371.462 52.144C372.614 54.064 374.192 55.5787 376.198 56.688C378.246 57.7547 380.571 58.288 383.174 58.288C385.222 58.288 387.12 57.9253 388.87 57.2C390.662 56.4747 392.198 55.3653 393.478 53.872L396.038 56.816C394.544 58.608 392.667 59.9733 390.406 60.912C388.187 61.8507 385.734 62.32 383.046 62.32Z" fill="white"/>
<path d="M0.5 86C7.7 85.2 274.5 85.6667 407 86" stroke="#4B009B" stroke-width="4"/>
</svg>
